<svg width="68" height="68" viewBox="0 0 68 68" fill="none" xmlns="http://www.w3.org/2000/svg">
<rect width="68" height="68" fill="#121212"/>
<path d="M23.2635 23.9835L24.5638 23.794L25.145 22.6155L32.8536 6.98589C32.8536 6.98586 32.8536 6.98582 32.8536 6.98578C33.3164 6.04858 34.6711 6.03029 35.1475 6.98766C35.1478 6.9883 35.1481 6.98893 35.1484 6.98957L42.8552 22.6155L43.4364 23.794L44.7366 23.9835L61.9846 26.4981L61.9864 26.4984C63.0262 26.6492 63.4498 27.9399 62.6908 28.6789L62.6901 28.6796L50.2116 40.8393L49.2698 41.7571L49.4924 43.0532L52.4435 60.2285C52.4436 60.229 52.4437 60.2295 52.4438 60.23C52.4438 60.2301 52.4438 60.2302 52.4438 60.2303C52.6185 61.2588 51.5283 62.0642 50.5935 61.5727L50.5931 61.5725L35.1633 53.462L34.0001 52.8506L32.8369 53.462L17.407 61.5724L17.3992 61.5766C16.4812 62.0633 15.3779 61.2731 15.5566 60.2285L18.5077 43.0532L18.7304 41.7571L17.7886 40.8393L5.31011 28.6796L5.3094 28.6789C4.55039 27.9399 4.97398 26.6492 6.01379 26.4984L6.01561 26.4981L23.2635 23.9835Z" fill="#121212" stroke="#6797E8" stroke-width="5"/>
</svg>
